<svg width="24" height="24" viewBox="0 0 24 24" fill="none" xmlns="http://www.w3.org/2000/svg">
<rect width="24" height="24" fill="#1E1E1E"/>
<g id="Section 1">
<path d="M-407 -54C-407 -55.1046 -406.105 -56 -405 -56H44C45.1046 -56 46 -55.1046 46 -54V171C46 172.105 45.1046 173 44 173H-405C-406.105 173 -407 172.105 -407 171V-54Z" fill="#444444"/>
<path d="M-405 -56V-55H44V-56V-57H-405V-56ZM46 -54H45V171H46H47V-54H46ZM44 173V172H-405V173V174H44V173ZM-407 171H-406V-54H-407H-408V171H-407ZM-405 173V172C-405.552 172 -406 171.552 -406 171H-407H-408C-408 172.657 -406.657 174 -405 174V173ZM46 171H45C45 171.552 44.5523 172 44 172V173V174C45.6569 174 47 172.657 47 171H46ZM44 -56V-55C44.5523 -55 45 -54.5523 45 -54H46H47C47 -55.6569 45.6568 -57 44 -57V-56ZM-405 -56V-57C-406.657 -57 -408 -55.6569 -408 -54H-407H-406C-406 -54.5523 -405.552 -55 -405 -55V-56Z" fill="white" fill-opacity="0.1"/>
<g id="appearance">
<rect id="Rectangle 5" x="3.78979" y="3.78979" width="16.4204" height="16.4204" rx="2.5" stroke="white" stroke-linecap="round"/>
<path id="Rectangle 6" d="M12 12L16.7756 7.22444C17.4055 6.59448 18.4827 7.04064 18.4827 7.93155V17.4827C18.4827 18.035 18.035 18.4827 17.4827 18.4827H7.93155C7.04064 18.4827 6.59448 17.4055 7.22444 16.7756L12 12Z" fill="white"/>
</g>
</g>
</svg>
