<svg width="18" height="18" viewBox="0 0 18 18" fill="none" xmlns="http://www.w3.org/2000/svg">
<rect width="18" height="18" fill="#1E1E1E"/>
<g id="Section 1">
<path d="M-68 -118C-68 -119.105 -67.1046 -120 -66 -120H335C336.105 -120 337 -119.105 337 -118V25C337 26.1046 336.105 27 335 27H-66C-67.1046 27 -68 26.1046 -68 25V-118Z" fill="#444444"/>
<path d="M-66 -119H335V-121H-66V-119ZM336 -118V25H338V-118H336ZM335 26H-66V28H335V26ZM-67 25V-118H-69V25H-67ZM-66 26C-66.5523 26 -67 25.5523 -67 25H-69C-69 26.6568 -67.6569 28 -66 28V26ZM336 25C336 25.5523 335.552 26 335 26V28C336.657 28 338 26.6569 338 25H336ZM335 -119C335.552 -119 336 -118.552 336 -118H338C338 -119.657 336.657 -121 335 -121V-119ZM-66 -121C-67.6569 -121 -69 -119.657 -69 -118H-67C-67 -118.552 -66.5523 -119 -66 -119V-121Z" fill="white" fill-opacity="0.1"/>
<g id="bottom-right">
<path id="Vector 1" d="M14.858 3.54599L14.858 8.454C14.858 11.7677 12.1717 14.454 8.85799 14.454L3.142 14.454" stroke="white" stroke-linecap="round"/>
</g>
</g>
</svg>
