<svg width="18" height="18" viewBox="0 0 18 18" fill="none" xmlns="http://www.w3.org/2000/svg">
<rect width="18" height="18" fill="#1E1E1E"/>
<g id="Section 1">
<path d="M-47 -118C-47 -119.105 -46.1046 -120 -45 -120H356C357.105 -120 358 -119.105 358 -118V25C358 26.1046 357.105 27 356 27H-45C-46.1046 27 -47 26.1046 -47 25V-118Z" fill="#444444"/>
<path d="M-45 -119H356V-121H-45V-119ZM357 -118V25H359V-118H357ZM356 26H-45V28H356V26ZM-46 25V-118H-48V25H-46ZM-45 26C-45.5523 26 -46 25.5523 -46 25H-48C-48 26.6568 -46.6569 28 -45 28V26ZM357 25C357 25.5523 356.552 26 356 26V28C357.657 28 359 26.6569 359 25H357ZM356 -119C356.552 -119 357 -118.552 357 -118H359C359 -119.657 357.657 -121 356 -121V-119ZM-45 -121C-46.6569 -121 -48 -119.657 -48 -118H-46C-46 -118.552 -45.5523 -119 -45 -119V-121Z" fill="white" fill-opacity="0.1"/>
<g id="bottom-left">
<path id="Vector 1" d="M14.454 14.858L9.54599 14.858C6.23228 14.858 3.54599 12.1717 3.54599 8.85799L3.54599 3.142" stroke="white" stroke-linecap="round"/>
</g>
</g>
</svg>
