<svg width="24" height="24" viewBox="0 0 24 24" fill="none" xmlns="http://www.w3.org/2000/svg">
<rect width="24" height="24" fill="#1E1E1E"/>
<g id="Section 1">
<path d="M-259 -54C-259 -55.1046 -258.105 -56 -257 -56H442C443.105 -56 444 -55.1046 444 -54V296C444 297.105 443.105 298 442 298H-257C-258.105 298 -259 297.105 -259 296V-54Z" fill="#444444"/>
<path d="M-257 -55H442V-57H-257V-55ZM443 -54V296H445V-54H443ZM442 297H-257V299H442V297ZM-258 296V-54H-260V296H-258ZM-257 297C-257.552 297 -258 296.552 -258 296H-260C-260 297.657 -258.657 299 -257 299V297ZM443 296C443 296.552 442.552 297 442 297V299C443.657 299 445 297.657 445 296H443ZM442 -55C442.552 -55 443 -54.5523 443 -54H445C445 -55.6568 443.657 -57 442 -57V-55ZM-257 -57C-258.657 -57 -260 -55.6568 -260 -54H-258C-258 -54.5523 -257.552 -55 -257 -55V-57Z" fill="white" fill-opacity="0.1"/>
<g id="fill">
<rect id="Rectangle 5" x="3.78979" y="3.78979" width="16.4204" height="16.4204" rx="2.5" stroke="white" stroke-linecap="round"/>
<rect id="Rectangle 6" x="5.51733" y="5.51733" width="12.9653" height="12.9653" rx="1" fill="white"/>
</g>
</g>
</svg>
