<svg width="24" height="24" viewBox="0 0 24 24" fill="none" xmlns="http://www.w3.org/2000/svg">
<rect width="24" height="24" fill="#1E1E1E"/>
<g id="Section 1">
<path d="M-181 -54C-181 -55.1046 -180.105 -56 -179 -56H520C521.105 -56 522 -55.1046 522 -54V296C522 297.105 521.105 298 520 298H-179C-180.105 298 -181 297.105 -181 296V-54Z" fill="#444444"/>
<path d="M-179 -55H520V-57H-179V-55ZM521 -54V296H523V-54H521ZM520 297H-179V299H520V297ZM-180 296V-54H-182V296H-180ZM-179 297C-179.552 297 -180 296.552 -180 296H-182C-182 297.657 -180.657 299 -179 299V297ZM521 296C521 296.552 520.552 297 520 297V299C521.657 299 523 297.657 523 296H521ZM520 -55C520.552 -55 521 -54.5523 521 -54H523C523 -55.6568 521.657 -57 520 -57V-55ZM-179 -57C-180.657 -57 -182 -55.6568 -182 -54H-180C-180 -54.5523 -179.552 -55 -179 -55V-57Z" fill="white" fill-opacity="0.1"/>
<g id="horizontal">
<g id="Group 6">
<path id="Vector 5" d="M3.76648 3.39014L3.76648 20.7537" stroke="white" stroke-linecap="round"/>
<path id="Vector 6" d="M20.2904 3.39014L20.2904 20.7537" stroke="white" stroke-linecap="round"/>
</g>
<rect id="Rectangle 5" x="7.87646" y="7.87646" width="8.24707" height="8.24707" rx="2.5" stroke="white" stroke-linecap="round"/>
</g>
</g>
</svg>
