<svg width="24" height="24" viewBox="0 0 24 24" fill="none" xmlns="http://www.w3.org/2000/svg">
<rect width="24" height="24" fill="#1E1E1E"/>
<g id="Section 1">
<path d="M-108 -182C-108 -183.105 -107.105 -184 -106 -184H295C296.105 -184 297 -183.105 297 -182V43C297 44.1046 296.105 45 295 45H-106C-107.105 45 -108 44.1046 -108 43V-182Z" fill="#444444"/>
<path d="M-106 -183H295V-185H-106V-183ZM296 -182V43H298V-182H296ZM295 44H-106V46H295V44ZM-107 43V-182H-109V43H-107ZM-106 44C-106.552 44 -107 43.5523 -107 43H-109C-109 44.6568 -107.657 46 -106 46V44ZM296 43C296 43.5523 295.552 44 295 44V46C296.657 46 298 44.6569 298 43H296ZM295 -183C295.552 -183 296 -182.552 296 -182H298C298 -183.657 296.657 -185 295 -185V-183ZM-106 -185C-107.657 -185 -109 -183.657 -109 -182H-107C-107 -182.552 -106.552 -183 -106 -183V-185Z" fill="white" fill-opacity="0.1"/>
<g id="local-var">
<rect id="Rectangle 5" x="3.84668" y="3.84668" width="16.3066" height="16.3066" rx="2.5" stroke="white" stroke-linecap="round"/>
<circle id="Ellipse 1" cx="12" cy="12" r="5.95248" stroke="white"/>
<circle id="Ellipse 2" cx="12" cy="12" r="2.94649" stroke="white"/>
</g>
</g>
</svg>
