<svg width="24" height="24" viewBox="0 0 24 24" fill="none" xmlns="http://www.w3.org/2000/svg">
<rect width="24" height="24" fill="#1E1E1E"/>
<g id="Section 1">
<path d="M-139 -182C-139 -183.105 -138.105 -184 -137 -184H264C265.105 -184 266 -183.105 266 -182V43C266 44.1046 265.105 45 264 45H-137C-138.105 45 -139 44.1046 -139 43V-182Z" fill="#444444"/>
<path d="M-137 -183H264V-185H-137V-183ZM265 -182V43H267V-182H265ZM264 44H-137V46H264V44ZM-138 43V-182H-140V43H-138ZM-137 44C-137.552 44 -138 43.5523 -138 43H-140C-140 44.6568 -138.657 46 -137 46V44ZM265 43C265 43.5523 264.552 44 264 44V46C265.657 46 267 44.6569 267 43H265ZM264 -183C264.552 -183 265 -182.552 265 -182H267C267 -183.657 265.657 -185 264 -185V-183ZM-137 -185C-138.657 -185 -140 -183.657 -140 -182H-138C-138 -182.552 -137.552 -183 -137 -183V-185Z" fill="white" fill-opacity="0.1"/>
<g id="missing-var">
<rect id="Rectangle 5" x="3.84668" y="3.84668" width="16.3066" height="16.3066" rx="2.5" stroke="white" stroke-linecap="round"/>
<circle id="Ellipse 1" cx="12" cy="12" r="5.95248" stroke="white"/>
<path id="?" d="M11.25 13.9347V13.8835C11.2557 13.3409 11.3125 12.9091 11.4205 12.5881C11.5284 12.267 11.6818 12.0071 11.8807 11.8082C12.0795 11.6094 12.3182 11.4261 12.5966 11.2585C12.7642 11.1562 12.9148 11.0355 13.0483 10.8963C13.1818 10.7543 13.2869 10.5909 13.3636 10.4062C13.4432 10.2216 13.483 10.017 13.483 9.79261C13.483 9.5142 13.4176 9.27272 13.2869 9.06818C13.1562 8.86363 12.9815 8.70596 12.7628 8.59517C12.544 8.48437 12.3011 8.42897 12.0341 8.42897C11.8011 8.42897 11.5767 8.47727 11.3608 8.57386C11.1449 8.67045 10.9645 8.82244 10.8196 9.02983C10.6747 9.23721 10.5909 9.50852 10.5682 9.84375H9.49432C9.51704 9.36079 9.64204 8.94744 9.86932 8.60369C10.0994 8.25994 10.402 7.99716 10.777 7.81534C11.1548 7.63352 11.5739 7.54261 12.0341 7.54261C12.5341 7.54261 12.9687 7.64204 13.3381 7.84091C13.7102 8.03977 13.9972 8.3125 14.1989 8.65909C14.4034 9.00568 14.5057 9.40056 14.5057 9.84375C14.5057 10.1562 14.4574 10.4389 14.3608 10.6918C14.267 10.9446 14.1307 11.1705 13.9517 11.3693C13.7756 11.5682 13.5625 11.7443 13.3125 11.8977C13.0625 12.054 12.8622 12.2187 12.7116 12.392C12.5611 12.5625 12.4517 12.7656 12.3835 13.0014C12.3153 13.2372 12.2784 13.5312 12.2727 13.8835V13.9347H11.25ZM11.7955 16.4574C11.5852 16.4574 11.4048 16.3821 11.2543 16.2315C11.1037 16.081 11.0284 15.9006 11.0284 15.6903C11.0284 15.4801 11.1037 15.2997 11.2543 15.1491C11.4048 14.9986 11.5852 14.9233 11.7955 14.9233C12.0057 14.9233 12.1861 14.9986 12.3366 15.1491C12.4872 15.2997 12.5625 15.4801 12.5625 15.6903C12.5625 15.8295 12.527 15.9574 12.456 16.0739C12.3878 16.1903 12.2955 16.2841 12.179 16.3551C12.0653 16.4233 11.9375 16.4574 11.7955 16.4574Z" fill="white"/>
</g>
</g>
</svg>
