<svg width="24" height="24" viewBox="0 0 24 24" fill="none" xmlns="http://www.w3.org/2000/svg">
<rect width="24" height="24" fill="#1E1E1E"/>
<g id="Section 1">
<path d="M-47 -54C-47 -55.1046 -46.1046 -56 -45 -56H356C357.105 -56 358 -55.1046 358 -54V89C358 90.1046 357.105 91 356 91H-45C-46.1046 91 -47 90.1046 -47 89V-54Z" fill="#444444"/>
<path d="M-45 -55H356V-57H-45V-55ZM357 -54V89H359V-54H357ZM356 90H-45V92H356V90ZM-46 89V-54H-48V89H-46ZM-45 90C-45.5523 90 -46 89.5523 -46 89H-48C-48 90.6568 -46.6569 92 -45 92V90ZM357 89C357 89.5523 356.552 90 356 90V92C357.657 92 359 90.6569 359 89H357ZM356 -55C356.552 -55 357 -54.5523 357 -54H359C359 -55.6568 357.657 -57 356 -57V-55ZM-45 -57C-46.6569 -57 -48 -55.6569 -48 -54H-46C-46 -54.5523 -45.5523 -55 -45 -55V-57Z" fill="white" fill-opacity="0.1"/>
<g id="corner">
<path id="Vector 1" d="M2.62552 8.80389V6.99321C2.62552 4.78407 4.41638 2.99321 6.62552 2.99321H8.86661" stroke="white" stroke-linecap="round"/>
<path id="Vector 3" d="M21.3745 15.1961L21.3745 17.0068C21.3745 19.2159 19.5836 21.0068 17.3745 21.0068L15.1334 21.0068" stroke="white" stroke-linecap="round"/>
<path id="Vector 2" d="M15.5638 2.99321L17.3745 2.99321C19.5836 2.99321 21.3745 4.78407 21.3745 6.99321V9.23431" stroke="white" stroke-linecap="round"/>
<path id="Vector 4" d="M8.4362 21.0068L6.62552 21.0068C4.41638 21.0068 2.62552 19.2159 2.62552 17.0068L2.62552 14.7657" stroke="white" stroke-linecap="round"/>
</g>
</g>
</svg>
