<svg width="24" height="24" viewBox="0 0 24 24" fill="none" xmlns="http://www.w3.org/2000/svg">
<rect width="24" height="24" fill="#1E1E1E"/>
<g id="Section 1">
<path d="M-47 -182C-47 -183.105 -46.1046 -184 -45 -184H356C357.105 -184 358 -183.105 358 -182V43C358 44.1046 357.105 45 356 45H-45C-46.1046 45 -47 44.1046 -47 43V-182Z" fill="#444444"/>
<path d="M-45 -183H356V-185H-45V-183ZM357 -182V43H359V-182H357ZM356 44H-45V46H356V44ZM-46 43V-182H-48V43H-46ZM-45 44C-45.5523 44 -46 43.5523 -46 43H-48C-48 44.6568 -46.6569 46 -45 46V44ZM357 43C357 43.5523 356.552 44 356 44V46C357.657 46 359 44.6569 359 43H357ZM356 -183C356.552 -183 357 -182.552 357 -182H359C359 -183.657 357.657 -185 356 -185V-183ZM-45 -185C-46.6569 -185 -48 -183.657 -48 -182H-46C-46 -182.552 -45.5523 -183 -45 -183V-185Z" fill="white" fill-opacity="0.1"/>
<g id="raw-value">
<rect id="Rectangle 5" x="3.84668" y="3.84668" width="16.3066" height="16.3066" rx="2.5" stroke="white" stroke-linecap="round"/>
<path id="Star 1" d="M11.0637 6.29194C11.354 5.37884 12.646 5.37884 12.9363 6.29194L13.2034 7.13203C13.3879 7.71237 14.0504 7.98682 14.5913 7.70692L15.3741 7.30172C16.2251 6.86132 17.1387 7.77494 16.6983 8.62585L16.2931 9.40874C16.0132 9.94956 16.2876 10.6121 16.868 10.7966L17.7081 11.0637C18.6212 11.354 18.6212 12.646 17.7081 12.9363L16.868 13.2034C16.2876 13.3879 16.0132 14.0504 16.2931 14.5913L16.6983 15.3741C17.1387 16.2251 16.2251 17.1387 15.3741 16.6983L14.5913 16.2931C14.0504 16.0132 13.3879 16.2876 13.2034 16.868L12.9363 17.7081C12.646 18.6212 11.354 18.6212 11.0637 17.7081L10.7966 16.868C10.6121 16.2876 9.94956 16.0132 9.40874 16.2931L8.62585 16.6983C7.77494 17.1387 6.86132 16.2251 7.30172 15.3741L7.70692 14.5913C7.98682 14.0504 7.71237 13.3879 7.13203 13.2034L6.29194 12.9363C5.37884 12.646 5.37884 11.354 6.29194 11.0637L7.13203 10.7966C7.71237 10.6121 7.98682 9.94956 7.70692 9.40874L7.30172 8.62585C6.86132 7.77494 7.77494 6.86132 8.62585 7.30172L9.40874 7.70692C9.94956 7.98682 10.6121 7.71237 10.7966 7.13203L11.0637 6.29194Z" stroke="white"/>
</g>
</g>
</svg>
