<svg width="24" height="24" viewBox="0 0 24 24" fill="none" xmlns="http://www.w3.org/2000/svg">
<rect width="24" height="24" fill="#1E1E1E"/>
<g id="Section 1">
<path d="M-138 -54C-138 -55.1046 -137.105 -56 -136 -56H563C564.105 -56 565 -55.1046 565 -54V296C565 297.105 564.105 298 563 298H-136C-137.105 298 -138 297.105 -138 296V-54Z" fill="#444444"/>
<path d="M-136 -55H563V-57H-136V-55ZM564 -54V296H566V-54H564ZM563 297H-136V299H563V297ZM-137 296V-54H-139V296H-137ZM-136 297C-136.552 297 -137 296.552 -137 296H-139C-139 297.657 -137.657 299 -136 299V297ZM564 296C564 296.552 563.552 297 563 297V299C564.657 299 566 297.657 566 296H564ZM563 -55C563.552 -55 564 -54.5523 564 -54H566C566 -55.6568 564.657 -57 563 -57V-55ZM-136 -57C-137.657 -57 -139 -55.6568 -139 -54H-137C-137 -54.5523 -136.552 -55 -136 -55V-57Z" fill="white" fill-opacity="0.1"/>
<g id="Gap">
<g id="Group 6">
<path id="Rectangle 3" d="M20.7651 3.39014H19C17.3431 3.39014 16 4.73328 16 6.39014V17.6096C16 19.2665 17.3431 20.6096 19 20.6096H20.7651" stroke="white" stroke-linecap="round"/>
<path id="Rectangle 4" d="M3.23486 3.39014H4.99998C6.65683 3.39014 7.99998 4.73328 7.99998 6.39014V17.6096C7.99998 19.2665 6.65683 20.6096 4.99998 20.6096H3.23486" stroke="white" stroke-linecap="round"/>
<path id="Vector 5" d="M12 6.92114V17.2227" stroke="white" stroke-linecap="round"/>
</g>
</g>
</g>
</svg>
