<svg width="24" height="24" viewBox="0 0 24 24" fill="none" xmlns="http://www.w3.org/2000/svg">
<rect width="24" height="24" fill="#1E1E1E"/>
<g id="Section 1">
<path d="M-294 -54C-294 -55.1046 -293.105 -56 -292 -56H407C408.105 -56 409 -55.1046 409 -54V296C409 297.105 408.105 298 407 298H-292C-293.105 298 -294 297.105 -294 296V-54Z" fill="#444444"/>
<path d="M-292 -55H407V-57H-292V-55ZM408 -54V296H410V-54H408ZM407 297H-292V299H407V297ZM-293 296V-54H-295V296H-293ZM-292 297C-292.552 297 -293 296.552 -293 296H-295C-295 297.657 -293.657 299 -292 299V297ZM408 296C408 296.552 407.552 297 407 297V299C408.657 299 410 297.657 410 296H408ZM407 -55C407.552 -55 408 -54.5523 408 -54H410C410 -55.6568 408.657 -57 407 -57V-55ZM-292 -57C-293.657 -57 -295 -55.6568 -295 -54H-293C-293 -54.5523 -292.552 -55 -292 -55V-57Z" fill="white" fill-opacity="0.1"/>
<g id="stroke">
<g id="Group 6">
<path id="Vector 5" d="M17.1266 17.1267L6.87317 6.87329" stroke="white" stroke-linecap="round"/>
</g>
<rect id="Rectangle 5" x="3.84668" y="3.84668" width="16.3066" height="16.3066" rx="2.5" stroke="white" stroke-linecap="round"/>
</g>
</g>
</svg>
