<svg width="18" height="18" viewBox="0 0 18 18" fill="none" xmlns="http://www.w3.org/2000/svg">
<rect width="18" height="18" fill="#1E1E1E"/>
<g id="Section 1">
<path d="M-47 -95C-47 -96.1046 -46.1046 -97 -45 -97H356C357.105 -97 358 -96.1046 358 -95V48C358 49.1046 357.105 50 356 50H-45C-46.1046 50 -47 49.1046 -47 48V-95Z" fill="#444444"/>
<path d="M-45 -96H356V-98H-45V-96ZM357 -95V48H359V-95H357ZM356 49H-45V51H356V49ZM-46 48V-95H-48V48H-46ZM-45 49C-45.5523 49 -46 48.5523 -46 48H-48C-48 49.6568 -46.6569 51 -45 51V49ZM357 48C357 48.5523 356.552 49 356 49V51C357.657 51 359 49.6569 359 48H357ZM356 -96C356.552 -96 357 -95.5523 357 -95H359C359 -96.6568 357.657 -98 356 -98V-96ZM-45 -98C-46.6569 -98 -48 -96.6569 -48 -95H-46C-46 -95.5523 -45.5523 -96 -45 -96V-98Z" fill="white" fill-opacity="0.1"/>
<g id="top-left">
<path id="Vector 1" d="M3.142 14.454V9.54599C3.142 6.23229 5.82829 3.546 9.142 3.546H14.858" stroke="white" stroke-linecap="round"/>
</g>
</g>
</svg>
