<svg width="18" height="18" viewBox="0 0 18 18" fill="none" xmlns="http://www.w3.org/2000/svg">
<rect width="18" height="18" fill="#1E1E1E"/>
<g id="Section 1">
<path d="M-68 -95C-68 -96.1046 -67.1046 -97 -66 -97H335C336.105 -97 337 -96.1046 337 -95V48C337 49.1046 336.105 50 335 50H-66C-67.1046 50 -68 49.1046 -68 48V-95Z" fill="#444444"/>
<path d="M-66 -96H335V-98H-66V-96ZM336 -95V48H338V-95H336ZM335 49H-66V51H335V49ZM-67 48V-95H-69V48H-67ZM-66 49C-66.5523 49 -67 48.5523 -67 48H-69C-69 49.6568 -67.6569 51 -66 51V49ZM336 48C336 48.5523 335.552 49 335 49V51C336.657 51 338 49.6569 338 48H336ZM335 -96C335.552 -96 336 -95.5523 336 -95H338C338 -96.6568 336.657 -98 335 -98V-96ZM-66 -98C-67.6569 -98 -69 -96.6569 -69 -95H-67C-67 -95.5523 -66.5523 -96 -66 -96V-98Z" fill="white" fill-opacity="0.1"/>
<g id="top-right">
<path id="Vector 1" d="M3.54599 3.142L8.454 3.142C11.7677 3.142 14.454 5.82829 14.454 9.142L14.454 14.858" stroke="white" stroke-linecap="round"/>
</g>
</g>
</svg>
