<svg width="24" height="24" viewBox="0 0 24 24" fill="none" xmlns="http://www.w3.org/2000/svg">
<rect width="24" height="24" fill="#1E1E1E"/>
<g id="Section 1">
<path d="M-91 -54C-91 -55.1046 -90.1046 -56 -89 -56H610C611.105 -56 612 -55.1046 612 -54V296C612 297.105 611.105 298 610 298H-89C-90.1046 298 -91 297.105 -91 296V-54Z" fill="#444444"/>
<path d="M-89 -55H610V-57H-89V-55ZM611 -54V296H613V-54H611ZM610 297H-89V299H610V297ZM-90 296V-54H-92V296H-90ZM-89 297C-89.5523 297 -90 296.552 -90 296H-92C-92 297.657 -90.6569 299 -89 299V297ZM611 296C611 296.552 610.552 297 610 297V299C611.657 299 613 297.657 613 296H611ZM610 -55C610.552 -55 611 -54.5523 611 -54H613C613 -55.6568 611.657 -57 610 -57V-55ZM-89 -57C-90.6569 -57 -92 -55.6568 -92 -54H-90C-90 -54.5523 -89.5523 -55 -89 -55V-57Z" fill="white" fill-opacity="0.1"/>
<g id="type">
<g id="Tt">
<path id="Vector" d="M19.9567 8.71249V9.97212H14.9434V8.71249H19.9567ZM16.4045 6.39478H17.8909V15.6153C17.8909 16.0351 17.9518 16.35 18.0735 16.56C18.1995 16.7657 18.3591 16.9043 18.5522 16.9757C18.7495 17.0428 18.9574 17.0764 19.1757 17.0764C19.3395 17.0764 19.4738 17.068 19.5788 17.0512C19.6838 17.0302 19.7677 17.0134 19.8307 17.0009L20.133 18.3361C20.0323 18.3738 19.8916 18.4116 19.7111 18.4494C19.5305 18.4914 19.3017 18.5124 19.0246 18.5124C18.6047 18.5124 18.1932 18.4221 17.7901 18.2416C17.3912 18.061 17.0595 17.786 16.795 17.4165C16.5347 17.047 16.4045 16.581 16.4045 16.0183V6.39478Z" fill="white"/>
<path id="Vector_2" d="M3.8667 6.87338V5.48779H13.5406V6.87338H9.48464V18.3864H7.9227V6.87338H3.8667Z" fill="white"/>
</g>
</g>
</g>
</svg>
